<svg xmlns="http://www.w3.org/2000/svg" width="1200" height="220" viewBox="0 0 1200 220"><rect width="1200" height="220" fill="white"/><text x="600" y="35" text-anchor="middle" font-family="Arial" font-size="24" font-weight="700">OmniSense AI Development Lifecycle</text><g font-family="Arial" font-size="15" text-anchor="middle" fill="white"><rect x="25" y="90" width="150" height="60" rx="12" fill="#222"/><text x="100" y="126">PLAN</text><path d="M175 120 L215 120" stroke="#222" stroke-width="3" marker-end="url(#a)"/><rect x="220" y="90" width="150" height="60" rx="12" fill="#222"/><text x="295" y="126">IMPLEMENT</text><path d="M370 120 L410 120" stroke="#222" stroke-width="3" marker-end="url(#a)"/><rect x="415" y="90" width="150" height="60" rx="12" fill="#222"/><text x="490" y="126">TEST</text><path d="M565 120 L605 120" stroke="#222" stroke-width="3" marker-end="url(#a)"/><rect x="610" y="90" width="150" height="60" rx="12" fill="#222"/><text x="685" y="126">VERIFY</text><path d="M760 120 L800 120" stroke="#222" stroke-width="3" marker-end="url(#a)"/><rect x="805" y="90" width="150" height="60" rx="12" fill="#222"/><text x="880" y="126">DOCUMENT</text><path d="M955 120 L995 120" stroke="#222" stroke-width="3" marker-end="url(#a)"/><rect x="1000" y="90" width="150" height="60" rx="12" fill="#222"/><text x="1075" y="126">COMMIT</text></g><defs><marker id="a" markerWidth="8" markerHeight="8" refX="6" refY="3" orient="auto"><path d="M0,0 L0,6 L7,3 z" fill="#222"/></marker></defs></svg>